# xmcd
#
# Track frame offsets: 
#        150
#        12402
#        23468
#        72381
#        104483
#        122618
#        148547
#        196230
#        211170
#
# Disc length: 3208 seconds
#
# Revision: 1
# Processed by: cddbd v1.5.2PL0 Copyright (c) Steve Scherf et al.
# Submitted via: ExactAudioCopy v0.99pb4
#
DISCID=770c8609
DTITLE=C. Brown and S. Rollins - Jazz Ballads 4 Disc 2
DYEAR=2004
DGENRE=Jazz
TTITLE0=In a sentimental mood
TTITLE1=My old flame
TTITLE2=Time on my hands
TTITLE3=This love of mine
TTITLE4=More than you know
TTITLE5='Round about midnight
TTITLE6=Silk'n' Satin
TTITLE7=But not for me
TTITLE8=Friday the thirteen
EXTD=YEAR: 2004
EXTT0=
EXTT1=
EXTT2=
EXTT3=
EXTT4=
EXTT5=
EXTT6=
EXTT7=
EXTT8=
PLAYORDER=
